<svg width="46" height="60" viewBox="0 0 46 60" fill="none" xmlns="http://www.w3.org/2000/svg">
<rect x="0.905605" y="0.905605" width="43.469" height="43.469" rx="21.7345" stroke="#FCC436" stroke-width="1.81121"/>
<path d="M32.2922 19.7364V30.9394C32.2922 31.6862 32.028 32.3239 31.4995 32.8523C30.9711 33.3808 30.3334 33.645 29.5866 33.645H16.0584C15.3116 33.645 14.6739 33.3808 14.1455 32.8523C13.617 32.3239 13.3528 31.6862 13.3528 30.9394V19.7364C12.9442 19.4968 12.6165 19.1727 12.3699 18.7641C12.1233 18.3554 12 17.9045 12 17.4113C12 16.4248 12.4826 15.5194 13.4479 14.6951C14.4132 13.8707 15.7273 13.2154 17.3901 12.7293C19.0529 12.2431 20.8637 12 22.8225 12C24.7813 12 26.5921 12.2431 28.2549 12.7293C29.9177 13.2154 31.2318 13.8707 32.1971 14.6951C33.1624 15.5194 33.645 16.4248 33.645 17.4113C33.645 17.9045 33.5217 18.3554 33.2751 18.7641C33.0285 19.1727 32.7009 19.4968 32.2922 19.7364Z" fill="#FCC436"/>
<path d="M22.4559 23.0859C22.4906 22.9217 22.5884 22.7578 22.7052 22.6486C22.7619 22.5955 22.8092 22.5685 22.8369 22.5574L22.8421 22.5554C23.1553 22.6061 23.4561 22.4021 23.5223 22.0884C23.5905 21.7652 23.3838 21.4479 23.0606 21.3796C22.5799 21.2782 22.1524 21.5276 21.888 21.7749C21.6049 22.0398 21.3744 22.4178 21.2855 22.8388C21.2172 23.1621 21.424 23.4794 21.7472 23.5476C22.0704 23.6158 22.3877 23.4091 22.4559 23.0859V23.0859Z" fill="white"/>
<path d="M17.4655 20.2267C15.3276 21.9298 15.2724 24.8155 16.2743 26.7596C16.9476 28.0662 18.2425 29.2289 20.1848 29.2289C20.6667 29.2289 21.0143 29.2158 21.288 29.2053C22.1172 29.1738 22.2677 29.1681 23.422 29.634C24.9573 30.2536 26.5899 30.0698 27.9541 29.2094C29.1818 28.4352 29.8864 26.6375 29.767 25.1786C29.7036 24.4053 29.7729 24.0899 29.852 23.7299C29.9221 23.4108 30 23.0566 30 22.3172C30 20.7437 29.5338 19.7406 29.0677 18.9202C28.6016 18.0998 28.095 17.2869 26.6593 16.3724C25.48 15.6213 23.2463 15.2613 21.4797 16.2417C20.1848 16.9603 19.5374 17.6136 18.7604 18.9202C18.4663 19.4148 18.1842 19.6543 17.4655 20.2267V20.2267ZM27.129 23.1814C27.129 25.3616 25.3616 27.129 23.1814 27.129C21.0012 27.129 19.2338 25.3616 19.2338 23.1814C19.2338 21.0012 21.0012 19.2338 23.1814 19.2338C25.3616 19.2338 27.129 21.0012 27.129 23.1814V23.1814Z" fill="white"/>
<path d="M4.21288 51.3625C4.60588 51.3625 4.94338 51.4165 5.22538 51.5245C5.51038 51.6295 5.72938 51.799 5.88238 52.033C6.03538 52.264 6.11188 52.564 6.11188 52.933C6.11188 53.278 6.03988 53.566 5.89588 53.797C5.75488 54.028 5.57188 54.202 5.34688 54.319C5.12488 54.436 4.89088 54.499 4.64488 54.508C4.91488 54.514 5.17138 54.574 5.41438 54.688C5.66038 54.799 5.86138 54.976 6.01738 55.219C6.17338 55.459 6.25138 55.7785 6.25138 56.1775C6.25138 56.5735 6.17188 56.908 6.01288 57.181C5.85388 57.451 5.61988 57.655 5.31088 57.793C5.00488 57.931 4.62388 58 4.16788 58H2.14738V51.3625H4.21288ZM2.69188 54.4765L2.49838 54.283H3.87538C4.39738 54.283 4.80688 54.1795 5.10388 53.9725C5.40088 53.7625 5.54938 53.4415 5.54938 53.0095C5.54938 52.7185 5.48788 52.489 5.36488 52.321C5.24188 52.153 5.06938 52.033 4.84738 51.961C4.62838 51.889 4.37488 51.853 4.08688 51.853H2.43988L2.69188 51.5425V54.4765ZM4.06438 57.5095C4.55638 57.5095 4.94788 57.4 5.23888 57.181C5.53288 56.962 5.67988 56.6185 5.67988 56.1505C5.67988 55.8715 5.63038 55.6435 5.53138 55.4665C5.43538 55.2865 5.30338 55.147 5.13538 55.048C4.96738 54.946 4.77688 54.8755 4.56388 54.8365C4.35088 54.7945 4.13038 54.7735 3.90238 54.7735H2.49838L2.69188 54.5845V57.82L2.43988 57.5095H4.06438ZM7.62486 58V53.221H8.18286V54.6295L7.98486 54.5665C8.00286 54.4165 8.04636 54.2605 8.11536 54.0985C8.18736 53.9335 8.28636 53.779 8.41236 53.635C8.53836 53.491 8.69586 53.3755 8.88486 53.2885C9.07686 53.1985 9.30486 53.1535 9.56886 53.1535C9.76086 53.1535 9.91536 53.17 10.0324 53.203C10.1494 53.236 10.2229 53.2615 10.2529 53.2795L10.0999 53.8195C10.0699 53.7985 10.0084 53.7715 9.91536 53.7385C9.82236 53.7055 9.68886 53.689 9.51486 53.689C9.26286 53.689 9.05136 53.7385 8.88036 53.8375C8.70936 53.9335 8.57286 54.0595 8.47086 54.2155C8.36886 54.3715 8.29536 54.538 8.25036 54.715C8.20536 54.889 8.18286 55.057 8.18286 55.219V58H7.62486ZM11.1782 55.8445V55.345H15.0482L14.9402 55.498C14.9402 55.48 14.9402 55.465 14.9402 55.453C14.9402 55.438 14.9402 55.423 14.9402 55.408C14.9402 55.099 14.8742 54.811 14.7422 54.544C14.6102 54.277 14.4182 54.0625 14.1662 53.9005C13.9172 53.7385 13.6127 53.6575 13.2527 53.6575C12.8867 53.6575 12.5642 53.7415 12.2852 53.9095C12.0062 54.0745 11.7887 54.304 11.6327 54.598C11.4767 54.889 11.3987 55.228 11.3987 55.615C11.3987 56.005 11.4752 56.3485 11.6282 56.6455C11.7842 56.9395 12.0017 57.169 12.2807 57.334C12.5597 57.496 12.8852 57.577 13.2572 57.577C13.5302 57.577 13.7672 57.544 13.9682 57.478C14.1722 57.409 14.3402 57.319 14.4722 57.208C14.6072 57.097 14.7092 56.98 14.7782 56.857C14.8502 56.731 14.8922 56.6125 14.9042 56.5015H15.4577C15.4457 56.6785 15.3887 56.86 15.2867 57.046C15.1877 57.229 15.0452 57.4 14.8592 57.559C14.6762 57.718 14.4482 57.847 14.1752 57.946C13.9052 58.042 13.5932 58.09 13.2392 58.09C12.7772 58.09 12.3662 57.985 12.0062 57.775C11.6492 57.565 11.3672 57.2755 11.1602 56.9065C10.9562 56.5345 10.8542 56.107 10.8542 55.624C10.8542 55.138 10.9577 54.7105 11.1647 54.3415C11.3717 53.9695 11.6552 53.6785 12.0152 53.4685C12.3752 53.2585 12.7847 53.1535 13.2437 53.1535C13.7117 53.1535 14.1167 53.26 14.4587 53.473C14.8007 53.686 15.0647 53.9755 15.2507 54.3415C15.4367 54.7045 15.5297 55.1125 15.5297 55.5655C15.5297 55.6045 15.5282 55.654 15.5252 55.714C15.5252 55.774 15.5237 55.8175 15.5207 55.8445H11.1782ZM18.4871 58.0855C18.1211 58.0855 17.8016 58.03 17.5286 57.919C17.2556 57.808 17.0441 57.6475 16.8941 57.4375C16.7471 57.2245 16.6736 56.968 16.6736 56.668C16.6736 56.365 16.7516 56.113 16.9076 55.912C17.0636 55.708 17.2856 55.549 17.5736 55.435C17.8646 55.321 18.2081 55.2445 18.6041 55.2055C19.2131 55.1425 19.6496 55.0795 19.9136 55.0165C20.1806 54.9505 20.3141 54.8455 20.3141 54.7015C20.3141 54.6925 20.3141 54.6835 20.3141 54.6745C20.3141 54.6625 20.3141 54.6505 20.3141 54.6385C20.3141 54.3295 20.1881 54.0895 19.9361 53.9185C19.6841 53.7475 19.3256 53.662 18.8606 53.662C18.3746 53.662 17.9951 53.758 17.7221 53.95C17.4521 54.142 17.3171 54.427 17.3171 54.805H16.7681C16.7681 54.46 16.8551 54.1645 17.0291 53.9185C17.2031 53.6695 17.4476 53.4805 17.7626 53.3515C18.0776 53.2195 18.4451 53.1535 18.8651 53.1535C19.2431 53.1535 19.5836 53.212 19.8866 53.329C20.1896 53.446 20.4296 53.617 20.6066 53.842C20.7866 54.064 20.8766 54.3385 20.8766 54.6655C20.8766 54.7285 20.8766 54.7915 20.8766 54.8545C20.8766 54.9145 20.8766 54.976 20.8766 55.039V57.154C20.8766 57.256 20.8811 57.3535 20.8901 57.4465C20.8991 57.5395 20.9126 57.6205 20.9306 57.6895C20.9576 57.7765 20.9861 57.8455 21.0161 57.8965C21.0461 57.9475 21.0701 57.982 21.0881 58H20.5256C20.5136 57.988 20.4941 57.9565 20.4671 57.9055C20.4401 57.8515 20.4131 57.7885 20.3861 57.7165C20.3621 57.6415 20.3456 57.5575 20.3366 57.4645C20.3276 57.3715 20.3231 57.259 20.3231 57.127L20.4131 57.1945C20.3171 57.3715 20.1776 57.5275 19.9946 57.6625C19.8116 57.7945 19.5926 57.898 19.3376 57.973C19.0826 58.048 18.7991 58.0855 18.4871 58.0855ZM18.5726 57.586C18.8966 57.586 19.1891 57.5335 19.4501 57.4285C19.7141 57.3205 19.9241 57.1675 20.0801 56.9695C20.2361 56.7685 20.3141 56.5255 20.3141 56.2405V55.1245L20.4356 55.3315C20.2616 55.4185 20.0246 55.489 19.7246 55.543C19.4246 55.594 19.0991 55.636 18.7481 55.669C18.2531 55.717 17.8766 55.8115 17.6186 55.9525C17.3636 56.0935 17.2361 56.323 17.2361 56.641C17.2361 56.947 17.3486 57.181 17.5736 57.343C17.7986 57.505 18.1316 57.586 18.5726 57.586ZM22.2938 58V50.9665H22.8248V55.372L22.6673 55.3045L25.1468 53.221H25.8713L23.5493 55.2145L23.6843 54.9175L25.9118 58H25.3043L23.3108 55.219L23.4548 55.3L22.7348 55.9075L22.8248 55.6285V58H22.2938ZM27.4697 58V53.7115H26.4077V53.221H27.4697V52.5595C27.4697 52.3795 27.4877 52.207 27.5237 52.042C27.5627 51.877 27.6197 51.7255 27.6947 51.5875C27.7727 51.4465 27.8702 51.325 27.9872 51.223C28.1072 51.121 28.2497 51.0415 28.4147 50.9845C28.5797 50.9275 28.7672 50.899 28.9772 50.899C29.1062 50.899 29.2127 50.908 29.2967 50.926C29.3807 50.941 29.4377 50.956 29.4677 50.971V51.4615C29.4287 51.4495 29.3687 51.436 29.2877 51.421C29.2067 51.406 29.1197 51.3985 29.0267 51.3985C28.8137 51.3985 28.6412 51.4345 28.5092 51.5065C28.3772 51.5785 28.2752 51.6745 28.2032 51.7945C28.1342 51.9145 28.0877 52.0495 28.0637 52.1995C28.0397 52.3465 28.0277 52.4965 28.0277 52.6495V53.221H29.4407V53.7115H28.0277V58H27.4697ZM31.8465 58.0855C31.4805 58.0855 31.161 58.03 30.888 57.919C30.615 57.808 30.4035 57.6475 30.2535 57.4375C30.1065 57.2245 30.033 56.968 30.033 56.668C30.033 56.365 30.111 56.113 30.267 55.912C30.423 55.708 30.645 55.549 30.933 55.435C31.224 55.321 31.5675 55.2445 31.9635 55.2055C32.5725 55.1425 33.009 55.0795 33.273 55.0165C33.54 54.9505 33.6735 54.8455 33.6735 54.7015C33.6735 54.6925 33.6735 54.6835 33.6735 54.6745C33.6735 54.6625 33.6735 54.6505 33.6735 54.6385C33.6735 54.3295 33.5475 54.0895 33.2955 53.9185C33.0435 53.7475 32.685 53.662 32.22 53.662C31.734 53.662 31.3545 53.758 31.0815 53.95C30.8115 54.142 30.6765 54.427 30.6765 54.805H30.1275C30.1275 54.46 30.2145 54.1645 30.3885 53.9185C30.5625 53.6695 30.807 53.4805 31.122 53.3515C31.437 53.2195 31.8045 53.1535 32.2245 53.1535C32.6025 53.1535 32.943 53.212 33.246 53.329C33.549 53.446 33.789 53.617 33.966 53.842C34.146 54.064 34.236 54.3385 34.236 54.6655C34.236 54.7285 34.236 54.7915 34.236 54.8545C34.236 54.9145 34.236 54.976 34.236 55.039V57.154C34.236 57.256 34.2405 57.3535 34.2495 57.4465C34.2585 57.5395 34.272 57.6205 34.29 57.6895C34.317 57.7765 34.3455 57.8455 34.3755 57.8965C34.4055 57.9475 34.4295 57.982 34.4475 58H33.885C33.873 57.988 33.8535 57.9565 33.8265 57.9055C33.7995 57.8515 33.7725 57.7885 33.7455 57.7165C33.7215 57.6415 33.705 57.5575 33.696 57.4645C33.687 57.3715 33.6825 57.259 33.6825 57.127L33.7725 57.1945C33.6765 57.3715 33.537 57.5275 33.354 57.6625C33.171 57.7945 32.952 57.898 32.697 57.973C32.442 58.048 32.1585 58.0855 31.8465 58.0855ZM31.932 57.586C32.256 57.586 32.5485 57.5335 32.8095 57.4285C33.0735 57.3205 33.2835 57.1675 33.4395 56.9695C33.5955 56.7685 33.6735 56.5255 33.6735 56.2405V55.1245L33.795 55.3315C33.621 55.4185 33.384 55.489 33.084 55.543C32.784 55.594 32.4585 55.636 32.1075 55.669C31.6125 55.717 31.236 55.8115 30.978 55.9525C30.723 56.0935 30.5955 56.323 30.5955 56.641C30.5955 56.947 30.708 57.181 30.933 57.343C31.158 57.505 31.491 57.586 31.932 57.586ZM37.3857 58.0855C37.0977 58.0855 36.8352 58.0555 36.5982 57.9955C36.3612 57.9355 36.1572 57.8485 35.9862 57.7345C35.8152 57.6175 35.6817 57.4765 35.5857 57.3115C35.4927 57.1435 35.4447 56.9515 35.4417 56.7355C35.4387 56.7085 35.4372 56.6815 35.4372 56.6545C35.4372 56.6245 35.4372 56.599 35.4372 56.578H35.9997C35.9997 56.599 35.9997 56.62 35.9997 56.641C35.9997 56.659 35.9997 56.683 35.9997 56.713C36.0087 56.989 36.1347 57.2035 36.3777 57.3565C36.6237 57.5065 36.9627 57.5815 37.3947 57.5815C37.6707 57.5815 37.9122 57.5515 38.1192 57.4915C38.3292 57.4285 38.4942 57.337 38.6142 57.217C38.7342 57.094 38.7942 56.9455 38.7942 56.7715C38.7942 56.4805 38.6682 56.2735 38.4162 56.1505C38.1672 56.0245 37.7997 55.9195 37.3137 55.8355C37.0617 55.7935 36.8262 55.7395 36.6072 55.6735C36.3912 55.6045 36.2007 55.519 36.0357 55.417C35.8737 55.312 35.7462 55.1815 35.6532 55.0255C35.5602 54.8695 35.5137 54.682 35.5137 54.463C35.5137 54.184 35.5977 53.947 35.7657 53.752C35.9337 53.557 36.1587 53.4085 36.4407 53.3065C36.7257 53.2045 37.0392 53.1535 37.3812 53.1535C37.7202 53.1535 38.0307 53.206 38.3127 53.311C38.5977 53.413 38.8257 53.566 38.9967 53.77C39.1677 53.974 39.2532 54.232 39.2532 54.544C39.2532 54.556 39.2532 54.571 39.2532 54.589C39.2532 54.607 39.2532 54.625 39.2532 54.643H38.6952C38.6952 54.628 38.6952 54.6145 38.6952 54.6025C38.6952 54.5875 38.6952 54.574 38.6952 54.562C38.6952 54.343 38.6337 54.1675 38.5107 54.0355C38.3877 53.9035 38.2272 53.8075 38.0292 53.7475C37.8312 53.6845 37.6197 53.653 37.3947 53.653C37.1727 53.653 36.9597 53.68 36.7557 53.734C36.5517 53.788 36.3852 53.8735 36.2562 53.9905C36.1302 54.1045 36.0672 54.256 36.0672 54.445C36.0672 54.634 36.1272 54.787 36.2472 54.904C36.3672 55.018 36.5367 55.111 36.7557 55.183C36.9747 55.252 37.2297 55.3135 37.5207 55.3675C37.7877 55.4155 38.0322 55.474 38.2542 55.543C38.4762 55.609 38.6682 55.693 38.8302 55.795C38.9922 55.897 39.1182 56.026 39.2082 56.182C39.2982 56.335 39.3432 56.5225 39.3432 56.7445C39.3432 56.9635 39.2937 57.157 39.1947 57.325C39.0957 57.49 38.9562 57.6295 38.7762 57.7435C38.5992 57.8575 38.3922 57.943 38.1552 58C37.9182 58.057 37.6617 58.0855 37.3857 58.0855ZM42.2139 58.072C42.0789 58.072 41.9469 58.0555 41.8179 58.0225C41.6919 57.9895 41.5779 57.931 41.4759 57.847C41.3769 57.76 41.2989 57.6415 41.2419 57.4915C41.1849 57.3415 41.1564 57.151 41.1564 56.92C41.1564 56.857 41.1564 56.7925 41.1564 56.7265C41.1564 56.6575 41.1564 56.5855 41.1564 56.5105V53.7115H40.0044V53.221H40.8324C40.9104 53.221 40.9719 53.218 41.0169 53.212C41.0619 53.206 41.0934 53.191 41.1114 53.167C41.1324 53.143 41.1444 53.1055 41.1474 53.0545C41.1534 53.0035 41.1564 52.933 41.1564 52.843V51.6775H41.7144V53.221H43.2444V53.7115H41.7144V56.326C41.7144 56.398 41.7144 56.467 41.7144 56.533C41.7144 56.599 41.7144 56.6605 41.7144 56.7175C41.7144 56.9875 41.7534 57.199 41.8314 57.352C41.9124 57.505 42.0639 57.5815 42.2859 57.5815C42.3699 57.5815 42.4524 57.574 42.5334 57.559C42.6144 57.544 42.6759 57.5275 42.7179 57.5095V57.9955C42.6669 58.0165 42.5964 58.0345 42.5064 58.0495C42.4164 58.0645 42.3189 58.072 42.2139 58.072Z" fill="#797D86"/>
</svg>
