<svg width="46" height="60" viewBox="0 0 46 60" fill="none" xmlns="http://www.w3.org/2000/svg">
<rect x="0.905605" y="0.905605" width="43.469" height="43.469" rx="21.7345" stroke="#FCC436" stroke-width="1.81121"/>
<path d="M16.8972 10C16.4017 10 16 10.4017 16 10.8972V19.8691C16 23.5298 18.7406 26.5504 22.282 26.9913C22.2809 27.0096 22.2803 27.0279 22.2803 27.0466V33.3269H19.5887C19.0933 33.3269 18.6916 33.7286 18.6916 34.2241C18.6916 34.7195 19.0933 35.1213 19.5887 35.1213H26.7662C27.2617 35.1213 27.6634 34.7195 27.6634 34.2241C27.6634 33.7286 27.2617 33.3269 26.7662 33.3269H24.0747V27.0466C24.0747 27.0279 24.0741 27.0096 24.073 26.9913C27.6145 26.5504 30.355 23.5298 30.355 19.8691V10.8972C30.355 10.4017 29.9532 10 29.4578 10H16.8972ZM17.7944 15.3831V11.7944H28.5606V15.3831H17.7944ZM28.0819 19.5159C27.967 20.5516 27.5272 21.5244 26.8255 22.2947C26.1238 23.0651 25.1962 23.5936 24.1756 23.8044C23.6904 23.9046 23.2158 23.5925 23.1155 23.1072C23.0153 22.6219 23.3274 22.1473 23.8127 22.0471C24.4621 21.9129 25.0524 21.5766 25.499 21.0864C25.9455 20.5962 26.2254 19.9771 26.2985 19.318C26.3531 18.8256 26.7968 18.4706 27.2891 18.5253C27.7817 18.5799 28.1366 19.0234 28.0819 19.5159Z" fill="#FCC436"/>
<path d="M12.5053 58V51.3625H14.0083C14.4463 51.3625 14.8408 51.4375 15.1918 51.5875C15.5428 51.7375 15.8428 51.955 16.0918 52.24C16.3408 52.525 16.5313 52.873 16.6633 53.284C16.7983 53.695 16.8658 54.1615 16.8658 54.6835C16.8658 55.2025 16.7983 55.6675 16.6633 56.0785C16.5313 56.4895 16.3408 56.8375 16.0918 57.1225C15.8428 57.4075 15.5428 57.625 15.1918 57.775C14.8408 57.925 14.4463 58 14.0083 58H12.5053ZM13.0723 57.82L12.8203 57.5095H13.9498C14.4178 57.5095 14.8273 57.397 15.1783 57.172C15.5323 56.944 15.8068 56.6185 16.0018 56.1955C16.1998 55.7725 16.2988 55.2685 16.2988 54.6835C16.2988 54.0925 16.1998 53.587 16.0018 53.167C15.8068 52.744 15.5323 52.42 15.1783 52.195C14.8273 51.967 14.4178 51.853 13.9498 51.853H12.8203L13.0723 51.5425V57.82ZM18.1058 58V53.221H18.6638V54.6295L18.4658 54.5665C18.4838 54.4165 18.5273 54.2605 18.5963 54.0985C18.6683 53.9335 18.7673 53.779 18.8933 53.635C19.0193 53.491 19.1768 53.3755 19.3658 53.2885C19.5578 53.1985 19.7858 53.1535 20.0498 53.1535C20.2418 53.1535 20.3963 53.17 20.5133 53.203C20.6303 53.236 20.7038 53.2615 20.7338 53.2795L20.5808 53.8195C20.5508 53.7985 20.4893 53.7715 20.3963 53.7385C20.3033 53.7055 20.1698 53.689 19.9958 53.689C19.7438 53.689 19.5323 53.7385 19.3613 53.8375C19.1903 53.9335 19.0538 54.0595 18.9518 54.2155C18.8498 54.3715 18.7763 54.538 18.7313 54.715C18.6863 54.889 18.6638 55.057 18.6638 55.219V58H18.1058ZM21.6971 58V53.221H22.2461V58H21.6971ZM21.9761 52.015C21.8591 52.015 21.7586 51.982 21.6746 51.916C21.5906 51.847 21.5486 51.7555 21.5486 51.6415C21.5486 51.5305 21.5906 51.442 21.6746 51.376C21.7586 51.307 21.8591 51.2725 21.9761 51.2725C22.0901 51.2725 22.1891 51.307 22.2731 51.376C22.3571 51.442 22.3991 51.5305 22.3991 51.6415C22.3991 51.7555 22.3571 51.847 22.2731 51.916C22.1891 51.982 22.0901 52.015 21.9761 52.015ZM27.2567 58V55.624C27.2567 55.477 27.2567 55.36 27.2567 55.273C27.2567 55.186 27.2567 55.1005 27.2567 55.0165C27.2567 54.7495 27.2087 54.517 27.1127 54.319C27.0197 54.118 26.8757 53.962 26.6807 53.851C26.4857 53.737 26.2352 53.68 25.9292 53.68C25.6592 53.68 25.4057 53.7475 25.1687 53.8825C24.9317 54.0145 24.7397 54.1945 24.5927 54.4225C24.4487 54.6505 24.3767 54.907 24.3767 55.192L24.0392 55.066C24.0392 54.703 24.1322 54.3775 24.3182 54.0895C24.5072 53.8015 24.7532 53.5735 25.0562 53.4055C25.3622 53.2375 25.6862 53.1535 26.0282 53.1535C26.3912 53.1535 26.7062 53.2225 26.9732 53.3605C27.2402 53.4955 27.4457 53.692 27.5897 53.95C27.7367 54.205 27.8102 54.5155 27.8102 54.8815C27.8102 55.0075 27.8102 55.1425 27.8102 55.2865C27.8102 55.4305 27.8102 55.561 27.8102 55.678V58H27.2567ZM23.8187 58V53.221H24.3767V58H23.8187ZM29.2943 58V50.9665H29.8253V55.372L29.6678 55.3045L32.1473 53.221H32.8718L30.5498 55.2145L30.6848 54.9175L32.9123 58H32.3048L30.3113 55.219L30.4553 55.3L29.7353 55.9075L29.8253 55.6285V58H29.2943Z" fill="#797D86"/>
</svg>
