<svg width="46" height="60" viewBox="0 0 46 60" fill="none" xmlns="http://www.w3.org/2000/svg">
<rect x="0.905605" y="0.905605" width="43.469" height="43.469" rx="21.7345" stroke="#FCC436" stroke-width="1.81121"/>
<path d="M21.7609 12C20.6231 12 19.653 12.5314 18.9076 13.284C18.501 13.127 18.1158 12.913 17.6522 12.913C15.6442 12.913 14 14.5572 14 16.5652C14 17.5032 14.3816 18.3414 14.9701 18.9905C14.9344 19.0904 14.913 19.1974 14.913 19.3043V31.1739C14.913 32.6754 16.1506 33.913 17.6522 33.913H28.6087C30.1102 33.913 31.3478 32.6754 31.3478 31.1739V29.3478H32.2609C33.7624 29.3478 35 28.1102 35 26.6087V22.9565C35 21.455 33.7624 20.2174 32.2609 20.2174H31.3478V19.1332C31.355 19.0654 31.355 19.0012 31.3478 18.9334C31.9042 18.2914 32.2609 17.4747 32.2609 16.5652C32.2609 14.5572 30.6167 12.913 28.6087 12.913C27.9275 12.913 27.3247 13.1556 26.7826 13.4837C26.2405 13.1556 25.6377 12.913 24.9565 12.913C24.7211 12.913 24.5357 12.9844 24.3288 13.0272C23.6191 12.4316 22.7595 12 21.7609 12ZM19.6495 19.5326C20.2736 19.9214 20.9727 20.2174 21.7609 20.2174C21.8572 20.2174 21.9 20.171 21.9891 20.1603C21.9142 20.5134 21.9178 20.9664 21.8179 21.2731C21.6004 21.9436 21.3043 22.5856 21.3043 23.413C21.3043 25.1678 22.7452 26.6087 24.5 26.6087C26.2548 26.6087 27.6957 25.1678 27.6957 23.413C27.6957 22.5856 27.3996 21.94 27.1821 21.2731C27.0644 20.9093 27.0323 20.3957 26.9538 19.9606C27.5387 20.0961 27.8027 20.2174 28.6087 20.2174C28.9226 20.2174 29.2293 20.1496 29.5217 20.0747V20.8451C29.4682 21.0234 29.4682 21.2089 29.5217 21.3872V28.2636C29.4968 28.3849 29.4968 28.5132 29.5217 28.6345V31.1739C29.5217 31.6911 29.1258 32.087 28.6087 32.087H17.6522C17.135 32.087 16.7391 31.6911 16.7391 31.1739V20.0747C17.0316 20.1496 17.3383 20.2174 17.6522 20.2174C18.4047 20.2174 19.0681 19.9249 19.6495 19.5326ZM31.3478 22.0435H32.2609C32.778 22.0435 33.1739 22.4394 33.1739 22.9565V26.6087C33.1739 27.1258 32.778 27.5217 32.2609 27.5217H31.3478V22.0435Z" fill="#FCC436"/>
<path d="M15.7116 58.0855C15.3336 58.0855 14.9871 58.009 14.6721 57.856C14.3571 57.7 14.0826 57.4765 13.8486 57.1855C13.6176 56.8915 13.4376 56.533 13.3086 56.11C13.1826 55.687 13.1196 55.2085 13.1196 54.6745C13.1196 54.1375 13.1826 53.6605 13.3086 53.2435C13.4376 52.8235 13.6176 52.468 13.8486 52.177C14.0826 51.886 14.3571 51.6655 14.6721 51.5155C14.9901 51.3655 15.3366 51.2905 15.7116 51.2905C16.0896 51.2905 16.4361 51.3655 16.7511 51.5155C17.0691 51.6655 17.3436 51.886 17.5746 52.177C17.8086 52.468 17.9886 52.8235 18.1146 53.2435C18.2436 53.6605 18.3081 54.1375 18.3081 54.6745C18.3081 55.2085 18.2436 55.687 18.1146 56.11C17.9886 56.533 17.8086 56.8915 17.5746 57.1855C17.3436 57.4765 17.0691 57.7 16.7511 57.856C16.4361 58.009 16.0896 58.0855 15.7116 58.0855ZM15.7116 57.5815C16.1106 57.5815 16.4616 57.469 16.7646 57.244C17.0706 57.019 17.3091 56.6905 17.4801 56.2585C17.6541 55.8265 17.7411 55.2985 17.7411 54.6745C17.7411 54.0475 17.6541 53.521 17.4801 53.095C17.3061 52.666 17.0661 52.342 16.7601 52.123C16.4571 51.904 16.1076 51.7945 15.7116 51.7945C15.3186 51.7945 14.9691 51.904 14.6631 52.123C14.3571 52.342 14.1171 52.666 13.9431 53.095C13.7691 53.521 13.6821 54.0475 13.6821 54.6745C13.6821 55.3015 13.7691 55.831 13.9431 56.263C14.1171 56.695 14.3571 57.0235 14.6631 57.2485C14.9691 57.4705 15.3186 57.5815 15.7116 57.5815ZM21.2251 58.072C21.0901 58.072 20.9581 58.0555 20.8291 58.0225C20.7031 57.9895 20.5891 57.931 20.4871 57.847C20.3881 57.76 20.3101 57.6415 20.2531 57.4915C20.1961 57.3415 20.1676 57.151 20.1676 56.92C20.1676 56.857 20.1676 56.7925 20.1676 56.7265C20.1676 56.6575 20.1676 56.5855 20.1676 56.5105V53.7115H19.0156V53.221H19.8436C19.9216 53.221 19.9831 53.218 20.0281 53.212C20.0731 53.206 20.1046 53.191 20.1226 53.167C20.1436 53.143 20.1556 53.1055 20.1586 53.0545C20.1646 53.0035 20.1676 52.933 20.1676 52.843V51.6775H20.7256V53.221H22.2556V53.7115H20.7256V56.326C20.7256 56.398 20.7256 56.467 20.7256 56.533C20.7256 56.599 20.7256 56.6605 20.7256 56.7175C20.7256 56.9875 20.7646 57.199 20.8426 57.352C20.9236 57.505 21.0751 57.5815 21.2971 57.5815C21.3811 57.5815 21.4636 57.574 21.5446 57.559C21.6256 57.544 21.6871 57.5275 21.7291 57.5095V57.9955C21.6781 58.0165 21.6076 58.0345 21.5176 58.0495C21.4276 58.0645 21.3301 58.072 21.2251 58.072ZM26.7554 58V56.1955C26.7554 56.1055 26.7554 56.0005 26.7554 55.8805C26.7554 55.7605 26.7554 55.6405 26.7554 55.5205C26.7554 55.3975 26.7554 55.291 26.7554 55.201C26.7554 54.712 26.6459 54.337 26.4269 54.076C26.2109 53.812 25.8779 53.68 25.4279 53.68C25.1249 53.68 24.8564 53.743 24.6224 53.869C24.3884 53.995 24.2039 54.163 24.0689 54.373C23.9369 54.58 23.8709 54.8095 23.8709 55.0615L23.5019 54.9535C23.5019 54.6325 23.5874 54.3355 23.7584 54.0625C23.9324 53.7895 24.1709 53.5705 24.4739 53.4055C24.7799 53.2375 25.1294 53.1535 25.5224 53.1535C26.0924 53.1535 26.5319 53.326 26.8409 53.671C27.1529 54.016 27.3089 54.493 27.3089 55.102C27.3089 55.264 27.3089 55.447 27.3089 55.651C27.3089 55.852 27.3089 56.0575 27.3089 56.2675V58H26.7554ZM23.3129 58V50.9665H23.8709V58H23.3129ZM28.9052 55.8445V55.345H32.7752L32.6672 55.498C32.6672 55.48 32.6672 55.465 32.6672 55.453C32.6672 55.438 32.6672 55.423 32.6672 55.408C32.6672 55.099 32.6012 54.811 32.4692 54.544C32.3372 54.277 32.1452 54.0625 31.8932 53.9005C31.6442 53.7385 31.3397 53.6575 30.9797 53.6575C30.6137 53.6575 30.2912 53.7415 30.0122 53.9095C29.7332 54.0745 29.5157 54.304 29.3597 54.598C29.2037 54.889 29.1257 55.228 29.1257 55.615C29.1257 56.005 29.2022 56.3485 29.3552 56.6455C29.5112 56.9395 29.7287 57.169 30.0077 57.334C30.2867 57.496 30.6122 57.577 30.9842 57.577C31.2572 57.577 31.4942 57.544 31.6952 57.478C31.8992 57.409 32.0672 57.319 32.1992 57.208C32.3342 57.097 32.4362 56.98 32.5052 56.857C32.5772 56.731 32.6192 56.6125 32.6312 56.5015H33.1847C33.1727 56.6785 33.1157 56.86 33.0137 57.046C32.9147 57.229 32.7722 57.4 32.5862 57.559C32.4032 57.718 32.1752 57.847 31.9022 57.946C31.6322 58.042 31.3202 58.09 30.9662 58.09C30.5042 58.09 30.0932 57.985 29.7332 57.775C29.3762 57.565 29.0942 57.2755 28.8872 56.9065C28.6832 56.5345 28.5812 56.107 28.5812 55.624C28.5812 55.138 28.6847 54.7105 28.8917 54.3415C29.0987 53.9695 29.3822 53.6785 29.7422 53.4685C30.1022 53.2585 30.5117 53.1535 30.9707 53.1535C31.4387 53.1535 31.8437 53.26 32.1857 53.473C32.5277 53.686 32.7917 53.9755 32.9777 54.3415C33.1637 54.7045 33.2567 55.1125 33.2567 55.5655C33.2567 55.6045 33.2552 55.654 33.2522 55.714C33.2522 55.774 33.2507 55.8175 33.2477 55.8445H28.9052ZM34.5716 58V53.221H35.1296V54.6295L34.9316 54.5665C34.9496 54.4165 34.9931 54.2605 35.0621 54.0985C35.1341 53.9335 35.2331 53.779 35.3591 53.635C35.4851 53.491 35.6426 53.3755 35.8316 53.2885C36.0236 53.1985 36.2516 53.1535 36.5156 53.1535C36.7076 53.1535 36.8621 53.17 36.9791 53.203C37.0961 53.236 37.1696 53.2615 37.1996 53.2795L37.0466 53.8195C37.0166 53.7985 36.9551 53.7715 36.8621 53.7385C36.7691 53.7055 36.6356 53.689 36.4616 53.689C36.2096 53.689 35.9981 53.7385 35.8271 53.8375C35.6561 53.9335 35.5196 54.0595 35.4176 54.2155C35.3156 54.3715 35.2421 54.538 35.1971 54.715C35.1521 54.889 35.1296 55.057 35.1296 55.219V58H34.5716Z" fill="#797D86"/>
</svg>
